<?xml version="1.0" encoding="utf-8"?>
<!-- Generator: Adobe Illustrator 25.4.1, SVG Export Plug-In . SVG Version: 6.00 Build 0)  -->
<svg version="1.1" baseProfile="basic" id="Layer_1"
	 xmlns="http://www.w3.org/2000/svg" xmlns:xlink="http://www.w3.org/1999/xlink" x="0px" y="0px" viewBox="0 0 512 512"
	 xml:space="preserve">
<style type="text/css">
	.st0{fill:#FFFFFF;}
</style>
<g transform="translate(1 1)">
	<g>
		<g>
			<path class="st0" d="M479.6,154.3c3.4-17.1,0-32.4-9.4-44.4c-8.3-12-21.8-19.4-40.1-21.6c-0.9-5.5-3-10.6-6-15.1
				c-5.1-7.7-13.6-12.8-23-14.5c-10.2-1.7-19.6,0.9-27.3,6c-10.3,7.6-15.4,19.3-15,31c-5.5,1.6-11.1,3.3-16.8,5.2
				C323.8,38.7,294.6-1,261.2-1c-32.8,0-61.6,39.3-79.8,101c-57.8-20.2-107.5-21.7-129.3,8.3c-8.2,11.2-10.6,26.5-6.4,45
				c-3.8,2.5-7.2,5.7-9.8,9.6c-11.9,16.2-7.7,39.2,8.5,50.3c6,4.3,12.8,6.8,20.5,6.8c1.7,0,4.3,0,6.8-0.9c2.1-0.4,4.2-1,6.2-1.7
				c8.9,12.3,19.2,24.9,30.8,37.4c-35.8,38.5-59.3,76.7-64.3,106.8c-2.6,16.2,0,29.9,6.8,40.1c11.1,15.4,30.7,23.9,58.9,23.9
				c19.9,0,43.9-4.5,71.5-14.1c18,60.8,46.6,99.4,79.6,99.4c15.1,0,28.9-7.4,41.3-20.9c4.4,1.9,9.1,3,14.2,3
				c19.6,0,35.8-16.2,35.8-35.8c0-12.5-6.5-23.5-16.3-30c2-5.8,3.9-11.7,5.7-17.9c30.3,10.5,58.2,16.3,80.6,16.3
				c6.8,0,13.7-0.9,19.6-2.6c14.5-2.6,23.9-9.4,29.9-18.8c22.3-37.6,2.2-90.5-54.1-149C453.4,218.3,475.2,183.2,479.6,154.3z
				 M384.1,78.4c3.4-2.6,6.8-3.4,11.1-3.4c0.9,0,2.6,0.8,3.4,0c5.1,0.8,9.4,3.4,12,7.7c1.8,2.3,2.9,4.8,3.4,7.5v5.3
				c0,0.8,0,1.5-0.1,2.3c-1,4.2-3.5,8.9-7.5,11.4c-8.5,6-20.5,4.3-26.5-4.3C373.8,96.3,375.5,84.3,384.1,78.4z M363.3,111.7
				c0.6,1.1,1.3,2.2,2,3.3c1.4,1.9,2.9,3.6,4.6,5.2c0,0,0.1,0.1,0.1,0.1c0.3,0.3,0.7,0.6,1,0.9c7,6.1,15.6,9.2,24.2,9.2
				c6.8,0,14.5-2.6,20.5-6.8c1.9-1.2,3.6-2.7,5.1-4.3c4-4.2,7-9.5,8.6-15.3c11.9,1.7,21.3,6.8,27.2,14.5c6.8,8.5,8.5,18.8,6.8,31.6
				c-3.9,25.7-24.8,58.2-58.2,92.7c-13.4-12.9-28.6-26.1-45.3-39.4c-2.5-31.4-7.1-60.5-13.5-86.4C352.1,115,357.7,113.3,363.3,111.7
				z M361.3,226.6c11.5,9.6,22.1,19,31.7,28.4c-9.8,9.4-20.4,18.9-31.8,28.4c0.4-9.4,0.6-18.8,0.6-28.4
				C361.9,245.4,361.7,235.9,361.3,226.6z M341,188.8c-7-5.2-14.3-10.5-21.8-15.7c-13.2-9.3-26.8-18.1-40.6-26.4
				c17.5-9.3,34.8-17.4,51.5-23.9C334.9,142.6,338.6,164.7,341,188.8z M261.2,16.1c23.7,0,48.6,33.7,64.8,90.7
				c-20.7,8-42.3,18.2-64,30.2c-21.9-12.3-43.8-22.9-65-31.2C213.2,49.4,237.6,16.1,261.2,16.1z M192.7,122.2
				c16.5,6.7,34,15,52,24.7c-13.6,8.1-27.2,16.8-40.6,26.1c-7.7,5.3-15.1,10.8-22.4,16.3C184.1,164.8,187.9,142.3,192.7,122.2z
				 M80.3,195.3c-2.6,4.3-6.8,6.8-12,7.7c-5.1,0.8-10.2-0.9-14.5-3.4c-8.5-6-10.2-17.9-4.3-26.5c1.2-1.8,2.8-3.4,4.6-4.5l4.8-1.4
				c6-1.7,12-0.9,17.1,2.6c4.1,2.5,6.6,6.6,7.6,11.5C84.3,185.9,83.2,191,80.3,195.3z M92.2,208.1c0.9-0.9,1.7-1.7,2.6-2.6
				c1-1.7,2-3.5,2.8-5.3c8.3-15.7,3.5-35.8-11.3-45.9c-7.3-5.4-15.9-7.5-24.3-6.7c-2.9-12.1-1.1-21.8,3.8-29.2
				c15.7-22.1,57.6-21.3,111.2-2.2c-6.5,26.2-11.2,55.8-13.7,87.6c-15.4,12.6-29.6,25.5-42.6,38.5
				C110.1,230.9,100.5,219.4,92.2,208.1z M161.9,282.3c-10.4-9.1-20.2-18.3-29.3-27.5c9.1-9.1,18.9-18.2,29.4-27.2
				c-0.4,9-0.5,18.1-0.5,27.4C161.3,264.2,161.5,273.4,161.9,282.3z M65.8,391.5c-4.3-6.8-6-16.2-4.3-27.3c4.3-27.1,25.9-61.5,59-97
				c13,13.2,27.3,26.3,42.8,39c2.5,32.2,7.2,62.2,13.8,88.6C123.7,414.1,82.5,414.2,65.8,391.5z M181.6,320.9
				c7.5,5.8,15.3,11.4,23.2,16.9c13,9.2,26.4,17.9,39.9,25.8c-18,10-35.4,18.4-51.8,25.1C188,368.5,184.1,345.7,181.6,320.9z
				 M288.5,479.4c-9.4,9.4-17.9,14.5-27.3,14.5c-23.4,0-47.6-32.7-63.8-88.2c20.1-8,41.9-18.5,65.2-31.8
				c21.2,11.6,42.4,21.5,62.7,29.5c-1.7,5.9-3.5,11.7-5.3,17.2C298.7,418,280,435,280,456.4C280,464.9,283.4,473.5,288.5,479.4z
				 M316.7,475.2c-10.1,0-18.5-8.3-18.8-18.3c0.2-10,8.6-18.3,18.8-18.3c2.6,0,4.3,0,6.8,0.9l2.4,0.8c5.6,3.3,9.5,9.4,9.5,16.3
				C335.4,466.6,326.9,475.2,316.7,475.2z M329.8,386.4c-15.8-6.2-32.4-13.8-49.5-22.8c12-7.3,24.5-15.3,37.3-24.1
				c7.9-5.5,15.5-11,22.9-16.6C338,345.3,334.4,366.6,329.8,386.4z M342.5,298.5c-10.7,8.3-21.8,16.6-33.5,24.8
				c-15.9,11.1-31.5,21.3-46.8,30.4c-15.7-9-31.8-19.1-47.9-30.4c-12-8.4-23.5-17.1-34.5-26c-0.8-13.6-1.3-27.7-1.3-42.3
				s0.5-28.7,1.3-42.3c11-8.8,22.5-17.5,34.5-26c15.5-11.1,31.3-21.2,47.1-30.4c15.7,9.1,31.6,19.3,47.6,30.4
				c11.9,8.3,23.2,16.7,33.8,25c0.8,13.9,1.2,28.3,1.2,43.3C344,269.7,343.5,284.3,342.5,298.5z M458.3,395.8
				c-3.4,5.1-9.4,9.4-18.8,11.1c-19.8,4.3-53.1-0.3-93.2-14.3c6.4-26,10.9-54.5,13.4-84.6c16.9-13.5,32.2-27,45.9-40.3
				C455.3,319.4,475.3,365.7,458.3,395.8z"/>
			<path class="st0" d="M261.2,191.8c-35,0-63.1,28.2-63.1,63.2s28.2,63.2,63.1,63.2c35,0,63.2-28.2,63.2-63.2
				S296.2,191.8,261.2,191.8z M261.2,301.1c-25.6,0-46.1-20.5-46.1-46.1s20.5-46.1,46.1-46.1c25.6,0,46.1,20.5,46.1,46.1
				S286.8,301.1,261.2,301.1z"/>
		</g>
	</g>
</g>
</svg>
