<svg id="Capa_1" data-name="Capa 1" xmlns="http://www.w3.org/2000/svg" width="344.26" height="639.34" viewBox="0 0 344.26 639.34"><defs><style>.cls-1{fill:none;}.cls-2{fill:#36a9e1;}.cls-3{fill:#706f6f;}.cls-4{fill:#9d9d9c;}.cls-5{fill:#c6c6c6;}.cls-6{fill:#f6f6f6;}.cls-7{fill:#a7f8ff;}.cls-8{fill:#1d1d1b;}.cls-9{fill:#575756;}.cls-10{fill:#b2b2b2;}.cls-11{fill:#dadada;}.cls-12{fill:#e30613;}</style></defs><polygon class="cls-1" points="262.3 147.54 262.3 131.15 245.9 131.15 245.9 147.54 245.9 163.93 262.3 163.93 262.3 147.54"/><polygon class="cls-2" points="327.87 98.36 327.87 114.75 327.87 131.15 327.87 147.54 327.87 163.93 344.26 163.93 344.26 147.54 344.26 131.15 344.26 114.75 344.26 98.36 327.87 98.36"/><polygon class="cls-3" points="311.48 278.69 311.48 295.08 327.87 295.08 327.87 278.69 327.87 262.3 311.48 262.3 311.48 278.69"/><polygon class="cls-4" points="327.87 229.51 327.87 213.11 327.87 196.72 327.87 180.33 311.48 180.33 311.48 196.72 311.48 213.11 311.48 229.51 311.48 245.9 311.48 262.3 327.87 262.3 327.87 245.9 327.87 229.51"/><polygon class="cls-3" points="311.48 163.93 295.08 163.93 278.69 163.93 278.69 180.33 295.08 180.33 311.48 180.33 327.87 180.33 327.87 196.72 327.87 213.11 327.87 229.51 327.87 245.9 327.87 262.3 344.26 262.3 344.26 245.9 344.26 229.51 344.26 213.11 344.26 196.72 344.26 180.33 344.26 163.93 327.87 163.93 311.48 163.93"/><rect class="cls-3" x="295.08" y="295.08" width="16.4" height="16.4"/><polygon class="cls-4" points="311.48 262.3 295.08 262.3 295.08 278.69 295.08 295.08 311.48 295.08 311.48 278.69 311.48 262.3"/><polygon class="cls-5" points="295.08 213.11 295.08 229.51 295.08 245.9 295.08 262.3 311.48 262.3 311.48 245.9 311.48 229.51 311.48 213.11 311.48 196.72 311.48 180.33 295.08 180.33 295.08 196.72 295.08 213.11"/><rect class="cls-3" x="278.69" y="311.48" width="16.39" height="16.39"/><rect class="cls-4" x="278.69" y="295.08" width="16.39" height="16.4"/><rect class="cls-5" x="278.69" y="278.69" width="16.39" height="16.39"/><polygon class="cls-6" points="278.69 213.11 262.3 213.11 262.3 229.51 262.3 245.9 262.3 262.3 262.3 278.69 245.9 278.69 245.9 295.08 245.9 311.48 262.3 311.48 262.3 295.08 278.69 295.08 278.69 278.69 295.08 278.69 295.08 262.3 295.08 245.9 295.08 229.51 295.08 213.11 295.08 196.72 295.08 180.33 278.69 180.33 278.69 196.72 278.69 213.11"/><polygon class="cls-2" points="295.08 98.36 311.48 98.36 327.87 98.36 327.87 81.97 311.48 81.97 295.08 81.97 278.69 81.97 262.3 81.97 262.3 98.36 278.69 98.36 295.08 98.36"/><rect class="cls-4" x="262.3" y="311.48" width="16.39" height="16.39"/><rect class="cls-5" x="262.3" y="295.08" width="16.39" height="16.4"/><polygon class="cls-3" points="262.3 196.72 262.3 213.11 278.69 213.11 278.69 196.72 278.69 180.33 262.3 180.33 262.3 196.72"/><polygon class="cls-2" points="278.69 131.15 262.3 131.15 262.3 147.54 262.3 163.93 262.3 180.33 278.69 180.33 278.69 163.93 278.69 147.54 278.69 131.15"/><polygon class="cls-7" points="262.3 131.15 278.69 131.15 278.69 147.54 278.69 163.93 295.08 163.93 311.48 163.93 327.87 163.93 327.87 147.54 327.87 131.15 327.87 114.75 327.87 98.36 311.48 98.36 295.08 98.36 278.69 98.36 262.3 98.36 262.3 114.75 262.3 131.15"/><polygon class="cls-3" points="262.3 311.48 245.9 311.48 245.9 327.87 245.9 344.26 245.9 360.66 245.9 377.05 245.9 393.44 245.9 409.84 245.9 426.23 245.9 442.62 245.9 459.02 245.9 475.41 245.9 491.8 245.9 508.2 229.51 508.2 213.12 508.2 196.72 508.2 180.33 508.2 163.94 508.2 163.94 491.8 163.94 475.41 163.94 459.02 163.94 442.62 163.94 426.23 163.94 409.84 163.94 393.44 163.94 377.05 163.94 360.66 163.94 344.26 163.94 327.87 163.94 311.48 163.94 295.08 147.54 295.08 147.54 311.48 147.54 327.87 147.54 344.26 147.54 360.66 147.54 377.05 147.54 393.44 147.54 409.84 147.54 426.23 147.54 442.62 147.54 459.02 147.54 475.41 147.54 491.8 147.54 508.2 131.15 508.2 114.76 508.2 98.36 508.2 81.97 508.2 81.97 491.8 81.97 475.41 81.97 459.02 81.97 442.62 81.97 426.23 81.97 409.84 81.97 393.44 81.97 377.05 81.97 360.66 81.97 344.26 81.97 327.87 81.97 311.48 65.58 311.48 65.58 327.87 65.58 344.26 65.58 360.66 65.58 377.05 65.58 393.44 65.58 409.84 65.58 426.23 65.58 442.62 65.58 459.02 65.58 475.41 65.58 491.8 65.58 508.2 65.58 524.59 65.58 540.98 65.58 557.38 65.58 573.77 65.58 590.16 65.58 606.56 65.58 622.95 65.58 639.34 81.97 639.34 98.36 639.34 114.76 639.34 131.15 639.34 147.54 639.34 163.94 639.34 180.33 639.34 196.72 639.34 213.12 639.34 229.51 639.34 245.9 639.34 262.3 639.34 262.3 622.95 262.3 606.56 262.3 590.16 245.9 590.16 245.9 606.56 245.9 622.95 229.51 622.95 213.12 622.95 196.72 622.95 180.33 622.95 180.33 606.56 180.33 590.16 163.94 590.16 163.94 606.56 163.94 622.95 147.54 622.95 131.15 622.95 114.76 622.95 98.36 622.95 81.97 622.95 81.97 606.56 98.36 606.56 98.36 590.16 81.97 590.16 81.97 573.77 81.97 557.38 81.97 540.98 81.97 524.59 98.36 524.59 114.76 524.59 131.15 524.59 147.54 524.59 147.54 540.98 147.54 557.38 147.54 573.77 131.15 573.77 114.76 573.77 98.36 573.77 98.36 590.16 114.76 590.16 131.15 590.16 147.54 590.16 163.94 590.16 163.94 573.77 163.94 557.38 163.94 540.98 163.94 524.59 180.33 524.59 196.72 524.59 213.12 524.59 229.51 524.59 229.51 540.98 229.51 557.38 229.51 573.77 213.12 573.77 196.72 573.77 180.33 573.77 180.33 590.16 196.72 590.16 213.12 590.16 229.51 590.16 245.9 590.16 245.9 573.77 245.9 557.38 245.9 540.98 245.9 524.59 262.3 524.59 262.3 508.2 262.3 491.8 262.3 475.41 262.3 459.02 262.3 442.62 262.3 426.23 262.3 409.84 262.3 393.44 262.3 377.05 262.3 360.66 262.3 344.26 278.69 344.26 278.69 327.87 262.3 327.87 262.3 311.48"/><rect class="cls-6" x="245.9" y="196.72" width="16.4" height="16.39"/><polygon class="cls-8" points="245.9 196.72 262.3 196.72 262.3 180.33 262.3 163.93 245.9 163.93 245.9 180.33 245.9 196.72"/><polygon class="cls-2" points="245.9 131.15 262.3 131.15 262.3 114.75 262.3 98.36 245.9 98.36 245.9 114.75 245.9 131.15"/><polygon class="cls-5" points="229.51 295.08 213.12 295.08 213.12 311.48 229.51 311.48 245.9 311.48 245.9 295.08 229.51 295.08"/><polygon class="cls-3" points="229.51 213.11 229.51 229.51 245.9 229.51 245.9 245.9 245.9 262.3 245.9 278.69 262.3 278.69 262.3 262.3 262.3 245.9 262.3 229.51 262.3 213.11 245.9 213.11 229.51 213.11"/><rect class="cls-8" x="229.51" y="196.72" width="16.39" height="16.39"/><polygon class="cls-6" points="229.51 196.72 245.9 196.72 245.9 180.33 245.9 163.93 229.51 163.93 229.51 180.33 229.51 196.72"/><polygon class="cls-5" points="213.12 606.56 213.12 590.16 196.72 590.16 196.72 606.56 196.72 622.95 213.12 622.95 229.51 622.95 229.51 606.56 213.12 606.56"/><polygon class="cls-6" points="213.12 590.16 213.12 606.56 229.51 606.56 229.51 622.95 245.9 622.95 245.9 606.56 245.9 590.16 229.51 590.16 213.12 590.16"/><path class="cls-6" d="M548.74,409.85V377.06h32.78V327.88H565.13v16.38H548.74v16.41h-16.4v16.39H516v32.79H499.56V606.57h82V409.85H548.74ZM516,442.63h32.79V459H516Zm0,65.57h32.79v16.4H516Zm16.39,82H516v-16.4h32.79v16.4Z" transform="translate(-335.62 -98.37)"/><polygon class="cls-3" points="213.12 278.69 213.12 295.08 229.51 295.08 245.9 295.08 245.9 278.69 229.51 278.69 213.12 278.69"/><rect class="cls-9" x="213.12" y="229.51" width="16.39" height="16.39"/><polygon class="cls-8" points="213.12 213.11 196.72 213.11 180.33 213.11 163.94 213.11 147.54 213.11 131.15 213.11 114.76 213.11 114.76 229.51 131.15 229.51 147.54 229.51 163.94 229.51 180.33 229.51 196.72 229.51 213.12 229.51 229.51 229.51 229.51 213.11 213.12 213.11"/><rect class="cls-8" x="213.12" y="49.18" width="16.39" height="16.39"/><polygon class="cls-6" points="196.72 557.38 196.72 573.77 213.12 573.77 229.51 573.77 229.51 557.38 229.51 540.98 229.51 524.59 213.12 524.59 196.72 524.59 196.72 540.98 196.72 557.38"/><rect class="cls-10" x="196.72" y="475.41" width="16.4" height="16.39"/><rect class="cls-10" x="196.72" y="409.84" width="16.4" height="16.39"/><rect class="cls-10" x="196.72" y="344.26" width="16.4" height="16.4"/><rect class="cls-9" x="196.72" y="245.9" width="16.4" height="16.4"/><rect class="cls-5" x="196.72" y="229.51" width="16.4" height="16.39"/><rect class="cls-8" x="196.72" y="163.93" width="16.4" height="16.4"/><polygon class="cls-4" points="196.72 590.16 180.33 590.16 180.33 606.56 180.33 622.95 196.72 622.95 196.72 606.56 196.72 590.16"/><polygon class="cls-5" points="180.33 557.38 180.33 573.77 196.72 573.77 196.72 557.38 196.72 540.98 196.72 524.59 180.33 524.59 180.33 540.98 180.33 557.38"/><rect class="cls-3" x="180.33" y="475.41" width="16.39" height="16.39"/><rect class="cls-3" x="180.33" y="409.84" width="16.39" height="16.39"/><rect class="cls-3" x="180.33" y="344.26" width="16.39" height="16.4"/><rect class="cls-9" x="180.33" y="262.3" width="16.39" height="16.39"/><rect class="cls-5" x="180.33" y="245.9" width="16.39" height="16.4"/><polygon class="cls-6" points="180.33 49.18 163.94 49.18 147.54 49.18 131.15 49.18 131.15 65.57 114.76 65.57 98.36 65.57 98.36 81.97 114.76 81.97 114.76 98.36 131.15 98.36 147.54 98.36 163.94 98.36 180.33 98.36 196.72 98.36 213.12 98.36 229.51 98.36 229.51 81.97 229.51 65.57 213.12 65.57 213.12 49.18 196.72 49.18 180.33 49.18"/><polygon class="cls-8" points="196.72 49.18 213.12 49.18 213.12 32.79 196.72 32.79 180.33 32.79 180.33 49.18 196.72 49.18"/><polygon class="cls-4" points="180.33 557.38 180.33 540.98 180.33 524.59 163.94 524.59 163.94 540.98 163.94 557.38 163.94 573.77 163.94 590.16 180.33 590.16 180.33 573.77 180.33 557.38"/><rect class="cls-5" x="163.94" y="295.08" width="16.39" height="16.4"/><rect class="cls-3" x="163.94" y="278.69" width="16.39" height="16.39"/><rect class="cls-5" x="163.94" y="262.3" width="16.39" height="16.39"/><polygon class="cls-4" points="180.33 262.3 180.33 245.9 196.72 245.9 196.72 229.51 180.33 229.51 163.94 229.51 147.54 229.51 131.15 229.51 131.15 245.9 147.54 245.9 147.54 262.3 163.94 262.3 180.33 262.3"/><rect class="cls-8" x="163.94" y="163.93" width="16.39" height="16.4"/><rect class="cls-11" x="163.94" y="32.79" width="16.39" height="16.39"/><rect class="cls-3" x="147.54" y="262.3" width="16.4" height="16.39"/><polygon class="cls-6" points="163.94 213.11 180.33 213.11 196.72 213.11 213.12 213.11 229.51 213.11 229.51 196.72 213.12 196.72 196.72 196.72 180.33 196.72 163.94 196.72 147.54 196.72 147.54 213.11 163.94 213.11"/><polygon class="cls-8" points="163.94 32.79 180.33 32.79 180.33 16.39 163.94 16.39 147.54 16.39 131.15 16.39 131.15 32.79 147.54 32.79 163.94 32.79"/><polygon class="cls-6" points="131.15 590.16 114.76 590.16 114.76 606.56 131.15 606.56 131.15 622.95 147.54 622.95 163.94 622.95 163.94 606.56 163.94 590.16 147.54 590.16 131.15 590.16"/><rect class="cls-3" x="131.15" y="245.9" width="16.39" height="16.4"/><polygon class="cls-11" points="147.54 213.11 147.54 196.72 131.15 196.72 131.15 180.33 114.76 180.33 114.76 196.72 114.76 213.11 131.15 213.11 147.54 213.11"/><polygon class="cls-4" points="147.54 163.93 147.54 180.33 147.54 196.72 163.94 196.72 180.33 196.72 196.72 196.72 213.12 196.72 229.51 196.72 229.51 180.33 229.51 163.93 229.51 147.54 213.12 147.54 213.12 131.15 196.72 131.15 196.72 147.54 196.72 163.93 213.12 163.93 213.12 180.33 196.72 180.33 196.72 163.93 180.33 163.93 180.33 180.33 163.94 180.33 163.94 163.93 180.33 163.93 180.33 147.54 180.33 131.15 163.94 131.15 163.94 147.54 147.54 147.54 131.15 147.54 131.15 163.93 147.54 163.93"/><polygon class="cls-5" points="147.54 49.18 163.94 49.18 163.94 32.79 147.54 32.79 131.15 32.79 131.15 49.18 147.54 49.18"/><polygon class="cls-5" points="114.76 606.56 114.76 590.16 98.36 590.16 98.36 606.56 98.36 622.95 114.76 622.95 131.15 622.95 131.15 606.56 114.76 606.56"/><polygon class="cls-6" points="114.76 557.38 114.76 573.77 131.15 573.77 147.54 573.77 147.54 557.38 147.54 540.98 147.54 524.59 131.15 524.59 114.76 524.59 114.76 540.98 114.76 557.38"/><polygon class="cls-6" points="114.76 245.9 114.76 229.51 98.36 229.51 98.36 245.9 98.36 262.3 114.76 262.3 131.15 262.3 131.15 245.9 114.76 245.9"/><rect class="cls-3" x="114.76" y="229.51" width="16.39" height="16.39"/><polygon class="cls-4" points="114.76 147.54 131.15 147.54 131.15 131.15 131.15 114.75 114.76 114.75 114.76 131.15 114.76 147.54"/><polygon class="cls-8" points="131.15 49.18 131.15 32.79 114.76 32.79 98.36 32.79 98.36 49.18 114.76 49.18 131.15 49.18"/><polygon class="cls-5" points="98.36 557.38 98.36 573.77 114.76 573.77 114.76 557.38 114.76 540.98 114.76 524.59 98.36 524.59 98.36 540.98 98.36 557.38"/><polygon class="cls-5" points="114.76 475.41 114.76 459.02 114.76 442.62 114.76 426.23 114.76 409.84 114.76 393.44 114.76 377.05 114.76 360.66 114.76 344.26 114.76 327.87 114.76 311.48 98.36 311.48 98.36 327.87 98.36 344.26 98.36 360.66 98.36 377.05 98.36 393.44 98.36 409.84 98.36 426.23 98.36 442.62 98.36 459.02 98.36 475.41 98.36 491.8 98.36 508.2 114.76 508.2 114.76 491.8 114.76 475.41"/><polygon class="cls-3" points="98.36 262.3 98.36 278.69 114.76 278.69 131.15 278.69 131.15 262.3 114.76 262.3 98.36 262.3"/><polygon class="cls-8" points="98.36 196.72 81.97 196.72 81.97 213.11 98.36 213.11 114.76 213.11 114.76 196.72 98.36 196.72"/><polygon class="cls-5" points="98.36 196.72 114.76 196.72 114.76 180.33 114.76 163.93 98.36 163.93 81.97 163.93 81.97 180.33 98.36 180.33 98.36 196.72"/><polygon class="cls-10" points="98.36 81.97 81.97 81.97 81.97 98.36 98.36 98.36 114.76 98.36 114.76 81.97 98.36 81.97"/><polygon class="cls-5" points="114.76 65.57 131.15 65.57 131.15 49.18 114.76 49.18 98.36 49.18 98.36 65.57 114.76 65.57"/><rect class="cls-4" x="81.97" y="606.56" width="16.39" height="16.39"/><polygon class="cls-4" points="98.36 557.38 98.36 540.98 98.36 524.59 81.97 524.59 81.97 540.98 81.97 557.38 81.97 573.77 81.97 590.16 98.36 590.16 98.36 573.77 98.36 557.38"/><polygon class="cls-4" points="98.36 475.41 98.36 459.02 98.36 442.62 98.36 426.23 98.36 409.84 98.36 393.44 98.36 377.05 98.36 360.66 98.36 344.26 98.36 327.87 98.36 311.48 81.97 311.48 81.97 327.87 81.97 344.26 81.97 360.66 81.97 377.05 81.97 393.44 81.97 409.84 81.97 426.23 81.97 442.62 81.97 459.02 81.97 475.41 81.97 491.8 81.97 508.2 98.36 508.2 98.36 491.8 98.36 475.41"/><polygon class="cls-3" points="98.36 229.51 114.76 229.51 114.76 213.11 98.36 213.11 81.97 213.11 81.97 229.51 81.97 245.9 81.97 262.3 98.36 262.3 98.36 245.9 98.36 229.51"/><rect class="cls-10" x="81.97" y="180.33" width="16.39" height="16.39"/><polygon class="cls-6" points="98.36 163.93 114.76 163.93 114.76 180.33 131.15 180.33 131.15 196.72 147.54 196.72 147.54 180.33 147.54 163.93 131.15 163.93 131.15 147.54 114.76 147.54 114.76 131.15 114.76 114.75 98.36 114.75 98.36 131.15 98.36 147.54 81.97 147.54 81.97 163.93 98.36 163.93"/><polygon class="cls-5" points="98.36 131.15 98.36 114.75 81.97 114.75 81.97 131.15 81.97 147.54 98.36 147.54 98.36 131.15"/><rect class="cls-5" x="81.97" y="65.57" width="16.39" height="16.4"/><rect class="cls-8" x="81.97" y="49.18" width="16.39" height="16.39"/><polygon class="cls-12" points="98.36 16.39 98.36 0 81.97 0 65.58 0 65.58 16.39 81.97 16.39 98.36 16.39"/><rect class="cls-4" x="65.58" y="295.08" width="16.39" height="16.4"/><rect class="cls-5" x="65.58" y="245.9" width="16.39" height="16.4"/><polygon class="cls-4" points="81.97 229.51 81.97 213.11 81.97 196.72 65.58 196.72 65.58 180.33 49.18 180.33 49.18 196.72 49.18 213.11 49.18 229.51 65.58 229.51 65.58 245.9 81.97 245.9 81.97 229.51"/><rect class="cls-8" x="65.58" y="180.33" width="16.39" height="16.39"/><polygon class="cls-4" points="65.58 180.33 81.97 180.33 81.97 163.93 81.97 147.54 65.58 147.54 65.58 163.93 65.58 180.33"/><polygon class="cls-8" points="65.58 114.75 65.58 131.15 65.58 147.54 81.97 147.54 81.97 131.15 81.97 114.75 98.36 114.75 114.76 114.75 131.15 114.75 131.15 131.15 131.15 147.54 147.54 147.54 163.94 147.54 163.94 131.15 180.33 131.15 180.33 147.54 180.33 163.93 196.72 163.93 196.72 147.54 196.72 131.15 213.12 131.15 213.12 147.54 229.51 147.54 229.51 163.93 245.9 163.93 245.9 147.54 245.9 131.15 245.9 114.75 245.9 98.36 245.9 81.97 245.9 65.57 229.51 65.57 229.51 81.97 229.51 98.36 213.12 98.36 196.72 98.36 180.33 98.36 163.94 98.36 147.54 98.36 131.15 98.36 114.76 98.36 98.36 98.36 81.97 98.36 81.97 81.97 65.58 81.97 65.58 98.36 65.58 114.75"/><polygon class="cls-4" points="81.97 65.57 81.97 49.18 81.97 32.79 81.97 16.39 65.58 16.39 65.58 32.79 65.58 49.18 65.58 65.57 65.58 81.97 81.97 81.97 81.97 65.57"/><polygon class="cls-3" points="65.58 278.69 49.18 278.69 32.79 278.69 32.79 295.08 49.18 295.08 49.18 311.48 65.58 311.48 65.58 295.08 65.58 278.69"/><rect class="cls-5" x="49.18" y="229.51" width="16.4" height="16.39"/><polygon class="cls-8" points="65.58 163.93 65.58 147.54 49.18 147.54 49.18 163.93 49.18 180.33 65.58 180.33 65.58 163.93"/><polygon class="cls-2" points="65.58 98.36 65.58 81.97 49.18 81.97 32.79 81.97 32.79 98.36 49.18 98.36 65.58 98.36"/><rect class="cls-4" x="32.79" y="262.3" width="16.39" height="16.39"/><polygon class="cls-6" points="32.79 262.3 49.18 262.3 49.18 278.69 65.58 278.69 65.58 295.08 81.97 295.08 81.97 311.48 98.36 311.48 114.76 311.48 114.76 327.87 114.76 344.26 114.76 360.66 114.76 377.05 114.76 393.44 114.76 409.84 114.76 426.23 114.76 442.62 114.76 459.02 114.76 475.41 114.76 491.8 114.76 508.2 131.15 508.2 147.54 508.2 147.54 491.8 147.54 475.41 147.54 459.02 147.54 442.62 147.54 426.23 147.54 409.84 147.54 393.44 147.54 377.05 147.54 360.66 147.54 344.26 147.54 327.87 147.54 311.48 147.54 295.08 163.94 295.08 163.94 278.69 147.54 278.69 147.54 262.3 131.15 262.3 131.15 278.69 114.76 278.69 98.36 278.69 98.36 262.3 81.97 262.3 65.58 262.3 65.58 245.9 49.18 245.9 49.18 229.51 49.18 213.11 32.79 213.11 32.79 196.72 32.79 180.33 16.4 180.33 16.4 196.72 16.4 213.11 16.4 229.51 16.4 245.9 32.79 245.9 32.79 262.3"/><polygon class="cls-5" points="49.18 180.33 32.79 180.33 32.79 196.72 32.79 213.11 49.18 213.11 49.18 196.72 49.18 180.33"/><polygon class="cls-3" points="32.79 245.9 16.4 245.9 16.4 262.3 16.4 278.69 32.79 278.69 32.79 262.3 32.79 245.9"/><polygon class="cls-7" points="16.4 147.54 16.4 163.93 32.79 163.93 49.18 163.93 49.18 147.54 65.58 147.54 65.58 131.15 65.58 114.75 65.58 98.36 49.18 98.36 32.79 98.36 32.79 114.75 16.4 114.75 16.4 131.15 16.4 147.54"/><rect class="cls-2" x="16.4" y="98.36" width="16.39" height="16.39"/><polygon class="cls-3" points="16.4 213.11 16.4 196.72 16.4 180.33 32.79 180.33 49.18 180.33 49.18 163.93 32.79 163.93 16.4 163.93 0 163.93 0 180.33 0 196.72 0 213.11 0 229.51 0 245.9 16.4 245.9 16.4 229.51 16.4 213.11"/><polygon class="cls-2" points="16.4 147.54 16.4 131.15 16.4 114.75 0 114.75 0 131.15 0 147.54 0 163.93 16.4 163.93 16.4 147.54"/></svg>