<svg id="Capa_1" data-name="Capa 1" xmlns="http://www.w3.org/2000/svg" width="327.87" height="622.95" viewBox="0 0 327.87 622.95"><defs><style>.cls-1{fill:#c6c6c6;}.cls-2{fill:#59a9ff;}.cls-3{fill:#a7f8ff;}.cls-4{fill:#009fe3;}.cls-5{fill:#f6f6f6;}.cls-6{fill:#9d9d9c;}.cls-7{fill:#706f6f;}.cls-8{fill:#1d1d1b;}.cls-9{fill:#575756;}.cls-10{fill:#b2b2b2;}.cls-11{fill:#dadada;}.cls-12{fill:#e30613;}</style></defs><rect class="cls-1" x="213.12" y="180.33" width="16.39" height="16.39"/><rect class="cls-2" x="262.3" y="426.23" width="16.39" height="16.39"/><rect class="cls-2" x="262.3" y="393.44" width="16.39" height="16.4"/><rect class="cls-2" x="262.3" y="409.84" width="16.39" height="16.39"/><rect class="cls-2" x="49.18" y="426.23" width="16.4" height="16.39"/><rect class="cls-2" x="32.79" y="426.23" width="16.39" height="16.39"/><rect class="cls-2" x="32.79" y="409.84" width="16.39" height="16.39"/><rect class="cls-2" x="16.4" y="409.84" width="16.39" height="16.39"/><rect class="cls-2" x="16.4" y="393.44" width="16.39" height="16.4"/><rect class="cls-3" x="32.79" y="393.44" width="16.39" height="16.4"/><rect class="cls-3" x="49.18" y="409.84" width="16.4" height="16.39"/><rect class="cls-3" x="49.18" y="393.44" width="16.4" height="16.4"/><rect class="cls-3" x="295.08" y="409.84" width="16.4" height="16.39"/><rect class="cls-3" x="295.08" y="393.44" width="16.4" height="16.4"/><rect class="cls-3" x="278.69" y="409.84" width="16.39" height="16.39"/><rect class="cls-3" x="278.69" y="393.44" width="16.39" height="16.4"/><rect class="cls-3" x="278.69" y="426.23" width="16.39" height="16.39"/><rect class="cls-4" x="262.3" y="442.62" width="16.39" height="16.4"/><rect class="cls-4" x="278.69" y="442.62" width="16.39" height="16.4"/><rect class="cls-4" x="295.08" y="426.23" width="16.4" height="16.39"/><rect class="cls-4" x="311.48" y="409.84" width="16.39" height="16.39"/><rect class="cls-4" x="311.48" y="393.44" width="16.39" height="16.4"/><rect class="cls-4" x="49.18" y="442.62" width="16.4" height="16.4"/><rect class="cls-4" x="32.79" y="442.62" width="16.39" height="16.4"/><rect class="cls-4" x="16.4" y="426.23" width="16.39" height="16.39"/><rect class="cls-4" y="409.84" width="16.4" height="16.39"/><rect class="cls-4" y="393.44" width="16.4" height="16.4"/><rect class="cls-5" x="49.18" y="327.87" width="16.4" height="16.39"/><rect class="cls-5" x="49.18" y="360.66" width="16.4" height="16.39"/><rect class="cls-5" x="49.18" y="344.26" width="16.4" height="16.4"/><rect class="cls-5" x="49.18" y="295.08" width="16.4" height="16.4"/><rect class="cls-5" x="49.18" y="311.48" width="16.4" height="16.39"/><rect class="cls-6" x="262.3" y="311.48" width="16.39" height="16.39"/><rect class="cls-5" x="295.08" y="327.87" width="16.4" height="16.39"/><rect class="cls-5" x="295.08" y="360.66" width="16.4" height="16.39"/><rect class="cls-5" x="295.08" y="311.48" width="16.4" height="16.39"/><rect class="cls-5" x="295.08" y="344.26" width="16.4" height="16.4"/><rect class="cls-5" x="278.69" y="278.69" width="16.39" height="16.39"/><rect class="cls-5" x="278.69" y="311.48" width="16.39" height="16.39"/><rect class="cls-5" x="278.69" y="295.08" width="16.39" height="16.4"/><rect class="cls-5" x="262.3" y="295.08" width="16.39" height="16.4"/><rect class="cls-5" x="262.3" y="278.69" width="16.39" height="16.39"/><rect class="cls-5" x="262.3" y="262.3" width="16.39" height="16.39"/><rect class="cls-1" x="229.51" y="278.69" width="16.39" height="16.39"/><rect class="cls-1" x="213.12" y="278.69" width="16.39" height="16.39"/><rect class="cls-1" x="245.9" y="262.3" width="16.4" height="16.39"/><rect class="cls-1" x="278.69" y="327.87" width="16.39" height="16.39"/><rect class="cls-1" x="278.69" y="360.66" width="16.39" height="16.39"/><rect class="cls-1" x="278.69" y="344.26" width="16.39" height="16.4"/><rect class="cls-1" x="32.79" y="344.26" width="16.39" height="16.4"/><rect class="cls-1" x="32.79" y="360.66" width="16.39" height="16.39"/><rect class="cls-1" x="32.79" y="311.48" width="16.39" height="16.39"/><rect class="cls-1" x="32.79" y="327.87" width="16.39" height="16.39"/><rect class="cls-1" x="49.18" y="278.69" width="16.4" height="16.39"/><rect class="cls-1" x="49.18" y="262.3" width="16.4" height="16.39"/><rect class="cls-6" x="262.3" y="344.26" width="16.39" height="16.4"/><rect class="cls-6" x="262.3" y="360.66" width="16.39" height="16.39"/><rect class="cls-6" x="262.3" y="327.87" width="16.39" height="16.39"/><rect class="cls-6" x="16.4" y="344.26" width="16.39" height="16.4"/><rect class="cls-6" x="16.4" y="327.87" width="16.39" height="16.39"/><rect class="cls-6" x="16.4" y="360.66" width="16.39" height="16.39"/><rect class="cls-6" x="16.4" y="311.48" width="16.39" height="16.39"/><rect class="cls-6" x="32.79" y="295.08" width="16.39" height="16.4"/><rect class="cls-6" x="32.79" y="278.69" width="16.39" height="16.39"/><rect class="cls-6" x="49.18" y="245.9" width="16.4" height="16.4"/><rect class="cls-5" x="229.51" y="573.77" width="16.39" height="16.39"/><rect class="cls-5" x="229.51" y="590.16" width="16.39" height="16.4"/><rect class="cls-5" x="213.12" y="573.77" width="16.39" height="16.39"/><rect class="cls-5" x="196.72" y="573.77" width="16.4" height="16.39"/><rect class="cls-5" x="213.12" y="508.2" width="16.39" height="16.39"/><rect class="cls-5" x="213.12" y="540.98" width="16.39" height="16.4"/><rect class="cls-5" x="213.12" y="524.59" width="16.39" height="16.39"/><rect class="cls-5" x="196.72" y="540.98" width="16.4" height="16.4"/><rect class="cls-5" x="196.72" y="508.2" width="16.4" height="16.39"/><rect class="cls-5" x="196.72" y="524.59" width="16.4" height="16.39"/><rect class="cls-5" x="147.54" y="590.16" width="16.4" height="16.4"/><rect class="cls-5" x="131.15" y="590.16" width="16.39" height="16.4"/><rect class="cls-5" x="147.54" y="573.77" width="16.4" height="16.39"/><rect class="cls-5" x="131.15" y="573.77" width="16.39" height="16.39"/><rect class="cls-5" x="114.76" y="573.77" width="16.39" height="16.39"/><rect class="cls-5" x="131.15" y="508.2" width="16.39" height="16.39"/><rect class="cls-5" x="131.15" y="524.59" width="16.39" height="16.39"/><rect class="cls-5" x="131.15" y="540.98" width="16.39" height="16.4"/><rect class="cls-5" x="114.76" y="540.98" width="16.39" height="16.4"/><rect class="cls-5" x="114.76" y="508.2" width="16.39" height="16.39"/><rect class="cls-5" x="114.76" y="524.59" width="16.39" height="16.39"/><rect class="cls-6" x="180.33" y="573.77" width="16.39" height="16.39"/><rect class="cls-6" x="180.33" y="590.16" width="16.39" height="16.4"/><rect class="cls-1" x="213.12" y="590.16" width="16.39" height="16.4"/><rect class="cls-1" x="196.72" y="590.16" width="16.4" height="16.4"/><rect class="cls-1" x="180.33" y="508.2" width="16.39" height="16.39"/><rect class="cls-1" x="180.33" y="524.59" width="16.39" height="16.39"/><rect class="cls-1" x="180.33" y="540.98" width="16.39" height="16.4"/><rect class="cls-1" x="114.76" y="590.16" width="16.39" height="16.4"/><rect class="cls-1" x="98.36" y="590.16" width="16.4" height="16.4"/><rect class="cls-1" x="98.36" y="524.59" width="16.4" height="16.39"/><rect class="cls-1" x="98.36" y="540.98" width="16.4" height="16.4"/><rect class="cls-1" x="98.36" y="508.2" width="16.4" height="16.39"/><rect class="cls-6" x="163.94" y="540.98" width="16.39" height="16.4"/><rect class="cls-6" x="163.94" y="524.59" width="16.39" height="16.39"/><rect class="cls-6" x="163.94" y="557.38" width="16.39" height="16.39"/><rect class="cls-6" x="163.94" y="508.2" width="16.39" height="16.39"/><rect class="cls-6" x="98.36" y="573.77" width="16.4" height="16.39"/><rect class="cls-6" x="81.97" y="590.16" width="16.39" height="16.4"/><rect class="cls-6" x="81.97" y="524.59" width="16.39" height="16.39"/><rect class="cls-6" x="81.97" y="557.38" width="16.39" height="16.39"/><rect class="cls-6" x="81.97" y="540.98" width="16.39" height="16.4"/><rect class="cls-6" x="81.97" y="508.2" width="16.39" height="16.39"/><rect class="cls-7" x="196.72" y="557.38" width="16.4" height="16.39"/><rect class="cls-7" x="180.33" y="557.38" width="16.39" height="16.39"/><rect class="cls-7" x="163.94" y="573.77" width="16.39" height="16.39"/><rect class="cls-7" x="163.94" y="590.16" width="16.39" height="16.4"/><rect class="cls-7" x="131.15" y="557.38" width="16.39" height="16.39"/><rect class="cls-7" x="114.76" y="557.38" width="16.39" height="16.39"/><rect class="cls-7" x="98.36" y="557.38" width="16.4" height="16.39"/><rect class="cls-7" x="81.97" y="573.77" width="16.39" height="16.39"/><rect class="cls-7" x="147.54" y="524.59" width="16.4" height="16.39"/><rect class="cls-7" x="147.54" y="508.2" width="16.4" height="16.39"/><rect class="cls-7" x="147.54" y="540.98" width="16.4" height="16.4"/><rect class="cls-7" x="147.54" y="557.38" width="16.4" height="16.39"/><rect class="cls-7" x="229.51" y="508.2" width="16.39" height="16.39"/><rect class="cls-7" x="229.51" y="540.98" width="16.39" height="16.4"/><rect class="cls-7" x="229.51" y="524.59" width="16.39" height="16.39"/><rect class="cls-7" x="213.12" y="557.38" width="16.39" height="16.39"/><rect class="cls-7" x="229.51" y="557.38" width="16.39" height="16.39"/><rect class="cls-7" x="245.9" y="573.77" width="16.4" height="16.39"/><rect class="cls-7" x="245.9" y="590.16" width="16.4" height="16.4"/><rect class="cls-7" x="229.51" y="606.56" width="16.39" height="16.39"/><rect class="cls-7" x="245.9" y="606.56" width="16.4" height="16.39"/><rect class="cls-7" x="213.12" y="606.56" width="16.39" height="16.39"/><rect class="cls-7" x="196.72" y="606.56" width="16.4" height="16.39"/><rect class="cls-7" x="180.33" y="606.56" width="16.39" height="16.39"/><rect class="cls-7" x="163.94" y="606.56" width="16.39" height="16.39"/><rect class="cls-7" x="147.54" y="606.56" width="16.4" height="16.39"/><rect class="cls-7" x="131.15" y="606.56" width="16.39" height="16.39"/><rect class="cls-7" x="114.76" y="606.56" width="16.39" height="16.39"/><rect class="cls-7" x="98.36" y="606.56" width="16.4" height="16.39"/><rect class="cls-7" x="81.97" y="606.56" width="16.39" height="16.39"/><rect class="cls-7" x="65.58" y="606.56" width="16.39" height="16.39"/><rect class="cls-7" x="65.58" y="590.16" width="16.39" height="16.4"/><rect class="cls-7" x="65.58" y="573.77" width="16.39" height="16.39"/><rect class="cls-7" x="65.58" y="557.38" width="16.39" height="16.39"/><rect class="cls-7" x="65.58" y="540.98" width="16.39" height="16.4"/><rect class="cls-7" x="65.58" y="524.59" width="16.39" height="16.39"/><rect class="cls-7" x="65.58" y="508.2" width="16.39" height="16.39"/><rect class="cls-7" x="229.51" y="491.8" width="16.39" height="16.4"/><rect class="cls-7" x="245.9" y="491.8" width="16.4" height="16.4"/><rect class="cls-7" x="65.58" y="491.8" width="16.39" height="16.4"/><rect class="cls-7" x="213.12" y="491.8" width="16.39" height="16.4"/><rect class="cls-7" x="196.72" y="491.8" width="16.4" height="16.4"/><rect class="cls-7" x="180.33" y="491.8" width="16.39" height="16.4"/><rect class="cls-7" x="163.94" y="491.8" width="16.39" height="16.4"/><rect class="cls-7" x="147.54" y="491.8" width="16.4" height="16.4"/><rect class="cls-7" x="131.15" y="491.8" width="16.39" height="16.4"/><rect class="cls-7" x="114.76" y="491.8" width="16.39" height="16.4"/><rect class="cls-7" x="98.36" y="491.8" width="16.4" height="16.4"/><rect class="cls-7" x="81.97" y="491.8" width="16.39" height="16.4"/><rect class="cls-5" x="196.72" y="409.84" width="16.4" height="16.39"/><rect class="cls-5" x="180.33" y="409.84" width="16.39" height="16.39"/><rect class="cls-7" x="311.48" y="377.05" width="16.39" height="16.39"/><rect class="cls-7" x="311.48" y="360.66" width="16.39" height="16.39"/><rect class="cls-7" x="311.48" y="344.26" width="16.39" height="16.4"/><rect class="cls-7" x="311.48" y="327.87" width="16.39" height="16.39"/><rect class="cls-7" x="311.48" y="311.48" width="16.39" height="16.39"/><rect class="cls-7" x="295.08" y="377.05" width="16.4" height="16.39"/><rect class="cls-7" x="295.08" y="295.08" width="16.4" height="16.4"/><rect class="cls-7" x="295.08" y="278.69" width="16.4" height="16.39"/><rect class="cls-7" x="278.69" y="377.05" width="16.39" height="16.39"/><rect class="cls-7" x="278.69" y="262.3" width="16.39" height="16.39"/><rect class="cls-7" x="278.69" y="245.9" width="16.39" height="16.4"/><rect class="cls-7" x="262.3" y="377.05" width="16.39" height="16.39"/><rect class="cls-1" x="262.3" y="245.9" width="16.39" height="16.4"/><rect class="cls-7" x="262.3" y="229.51" width="16.39" height="16.39"/><rect class="cls-7" x="245.9" y="475.41" width="16.4" height="16.39"/><rect class="cls-7" x="245.9" y="459.02" width="16.4" height="16.39"/><rect class="cls-7" x="245.9" y="442.62" width="16.4" height="16.4"/><rect class="cls-7" x="245.9" y="426.23" width="16.4" height="16.39"/><rect class="cls-7" x="245.9" y="409.84" width="16.4" height="16.39"/><rect class="cls-7" x="245.9" y="393.44" width="16.4" height="16.4"/><rect class="cls-7" x="245.9" y="377.05" width="16.4" height="16.39"/><rect class="cls-7" x="245.9" y="360.66" width="16.4" height="16.39"/><rect class="cls-7" x="245.9" y="344.26" width="16.4" height="16.4"/><rect class="cls-7" x="245.9" y="327.87" width="16.4" height="16.39"/><rect class="cls-7" x="245.9" y="311.48" width="16.4" height="16.39"/><rect class="cls-7" x="245.9" y="295.08" width="16.4" height="16.4"/><rect class="cls-5" x="245.9" y="278.69" width="16.4" height="16.39"/><rect class="cls-7" x="245.9" y="245.9" width="16.4" height="16.4"/><rect class="cls-7" x="245.9" y="229.51" width="16.4" height="16.39"/><rect class="cls-7" x="245.9" y="213.11" width="16.4" height="16.4"/><rect class="cls-8" x="245.9" y="180.33" width="16.4" height="16.39"/><rect class="cls-8" x="245.9" y="163.93" width="16.4" height="16.4"/><rect class="cls-5" x="229.51" y="475.41" width="16.39" height="16.39"/><rect class="cls-5" x="229.51" y="459.02" width="16.39" height="16.39"/><rect class="cls-5" x="229.51" y="442.62" width="16.39" height="16.4"/><rect class="cls-5" x="229.51" y="426.23" width="16.39" height="16.39"/><rect class="cls-5" x="229.51" y="409.84" width="16.39" height="16.39"/><rect class="cls-5" x="229.51" y="393.44" width="16.39" height="16.4"/><rect class="cls-5" x="229.51" y="377.05" width="16.39" height="16.39"/><rect class="cls-5" x="229.51" y="360.66" width="16.39" height="16.39"/><rect class="cls-5" x="229.51" y="344.26" width="16.39" height="16.4"/><rect class="cls-5" x="229.51" y="327.87" width="16.39" height="16.39"/><rect class="cls-5" x="229.51" y="311.48" width="16.39" height="16.39"/><rect class="cls-5" x="229.51" y="295.08" width="16.39" height="16.4"/><rect class="cls-7" x="229.51" y="262.3" width="16.39" height="16.39"/><rect class="cls-5" x="229.51" y="245.9" width="16.39" height="16.4"/><rect class="cls-5" x="229.51" y="229.51" width="16.39" height="16.39"/><rect class="cls-7" x="229.51" y="213.11" width="16.39" height="16.4"/><rect class="cls-8" x="229.51" y="196.72" width="16.39" height="16.39"/><rect class="cls-5" x="229.51" y="180.33" width="16.39" height="16.39"/><rect class="cls-5" x="229.51" y="163.93" width="16.39" height="16.4"/><rect class="cls-8" x="229.51" y="147.54" width="16.39" height="16.39"/><rect class="cls-8" x="229.51" y="131.15" width="16.39" height="16.39"/><rect class="cls-8" x="229.51" y="114.75" width="16.39" height="16.4"/><rect class="cls-8" x="229.51" y="98.36" width="16.39" height="16.39"/><rect class="cls-8" x="229.51" y="81.97" width="16.39" height="16.39"/><rect class="cls-8" x="229.51" y="65.57" width="16.39" height="16.4"/><rect class="cls-5" x="213.12" y="475.41" width="16.39" height="16.39"/><rect class="cls-5" x="213.12" y="459.02" width="16.39" height="16.39"/><rect class="cls-5" x="213.12" y="442.62" width="16.39" height="16.4"/><rect class="cls-5" x="213.12" y="426.23" width="16.39" height="16.39"/><rect class="cls-5" x="213.12" y="409.84" width="16.39" height="16.39"/><rect class="cls-5" x="213.12" y="393.44" width="16.39" height="16.4"/><rect class="cls-5" x="213.12" y="377.05" width="16.39" height="16.39"/><rect class="cls-5" x="213.12" y="360.66" width="16.39" height="16.39"/><rect class="cls-5" x="213.12" y="344.26" width="16.39" height="16.4"/><rect class="cls-5" x="213.12" y="327.87" width="16.39" height="16.39"/><rect class="cls-5" x="213.12" y="311.48" width="16.39" height="16.39"/><rect class="cls-5" x="213.12" y="295.08" width="16.39" height="16.4"/><rect class="cls-7" x="213.12" y="262.3" width="16.39" height="16.39"/><rect class="cls-5" x="213.12" y="245.9" width="16.39" height="16.4"/><rect class="cls-9" x="213.12" y="229.51" width="16.39" height="16.39"/><rect class="cls-8" x="213.12" y="213.11" width="16.39" height="16.4"/><rect class="cls-5" x="213.12" y="196.72" width="16.39" height="16.39"/><rect class="cls-6" x="213.12" y="163.93" width="16.39" height="16.4"/><rect class="cls-6" x="213.12" y="147.54" width="16.39" height="16.39"/><rect class="cls-8" x="213.12" y="131.15" width="16.39" height="16.39"/><rect class="cls-8" x="213.12" y="114.75" width="16.39" height="16.4"/><rect class="cls-8" x="213.12" y="98.36" width="16.39" height="16.39"/><rect class="cls-5" x="213.12" y="81.97" width="16.39" height="16.39"/><rect class="cls-5" x="213.12" y="65.57" width="16.39" height="16.4"/><rect class="cls-8" x="213.12" y="49.18" width="16.39" height="16.39"/><rect class="cls-5" x="196.72" y="475.41" width="16.4" height="16.39"/><rect class="cls-10" x="196.72" y="459.02" width="16.4" height="16.39"/><rect class="cls-5" x="196.72" y="442.62" width="16.4" height="16.4"/><rect class="cls-5" x="196.72" y="426.23" width="16.4" height="16.39"/><rect class="cls-10" x="196.72" y="393.44" width="16.4" height="16.4"/><rect class="cls-5" x="196.72" y="377.05" width="16.4" height="16.39"/><rect class="cls-5" x="196.72" y="360.66" width="16.4" height="16.39"/><rect class="cls-5" x="196.72" y="344.26" width="16.4" height="16.4"/><rect class="cls-10" x="196.72" y="327.87" width="16.4" height="16.39"/><rect class="cls-5" x="196.72" y="311.48" width="16.4" height="16.39"/><rect class="cls-5" x="196.72" y="295.08" width="16.4" height="16.4"/><rect class="cls-5" x="196.72" y="278.69" width="16.4" height="16.39"/><rect class="cls-5" x="196.72" y="262.3" width="16.4" height="16.39"/><rect class="cls-9" x="196.72" y="245.9" width="16.4" height="16.4"/><rect class="cls-1" x="196.72" y="229.51" width="16.4" height="16.39"/><rect class="cls-8" x="196.72" y="213.11" width="16.4" height="16.4"/><rect class="cls-5" x="196.72" y="196.72" width="16.4" height="16.39"/><rect class="cls-6" x="196.72" y="180.33" width="16.4" height="16.39"/><rect class="cls-8" x="196.72" y="163.93" width="16.4" height="16.4"/><rect class="cls-6" x="196.72" y="147.54" width="16.4" height="16.39"/><rect class="cls-6" x="196.72" y="131.15" width="16.4" height="16.39"/><rect class="cls-8" x="196.72" y="114.75" width="16.4" height="16.4"/><rect class="cls-8" x="196.72" y="98.36" width="16.4" height="16.39"/><rect class="cls-5" x="196.72" y="81.97" width="16.4" height="16.39"/><rect class="cls-5" x="196.72" y="65.57" width="16.4" height="16.4"/><rect class="cls-5" x="196.72" y="49.18" width="16.4" height="16.39"/><rect class="cls-8" x="196.72" y="32.79" width="16.4" height="16.39"/><rect class="cls-5" x="180.33" y="475.41" width="16.39" height="16.39"/><rect class="cls-7" x="180.33" y="459.02" width="16.39" height="16.39"/><rect class="cls-5" x="180.33" y="442.62" width="16.39" height="16.4"/><rect class="cls-5" x="180.33" y="426.23" width="16.39" height="16.39"/><rect class="cls-7" x="180.33" y="393.44" width="16.39" height="16.4"/><rect class="cls-5" x="180.33" y="377.05" width="16.39" height="16.39"/><rect class="cls-5" x="180.33" y="360.66" width="16.39" height="16.39"/><rect class="cls-5" x="180.33" y="344.26" width="16.39" height="16.4"/><rect class="cls-7" x="180.33" y="327.87" width="16.39" height="16.39"/><rect class="cls-5" x="180.33" y="311.48" width="16.39" height="16.39"/><rect class="cls-5" x="180.33" y="295.08" width="16.39" height="16.4"/><rect class="cls-5" x="180.33" y="278.69" width="16.39" height="16.39"/><rect class="cls-9" x="180.33" y="262.3" width="16.39" height="16.39"/><rect class="cls-1" x="180.33" y="245.9" width="16.39" height="16.4"/><rect class="cls-6" x="180.33" y="229.51" width="16.39" height="16.39"/><rect class="cls-8" x="180.33" y="213.11" width="16.39" height="16.4"/><rect class="cls-5" x="180.33" y="196.72" width="16.39" height="16.39"/><rect class="cls-6" x="180.33" y="180.33" width="16.39" height="16.39"/><rect class="cls-6" x="180.33" y="163.93" width="16.39" height="16.4"/><rect class="cls-8" x="180.33" y="147.54" width="16.39" height="16.39"/><rect class="cls-8" x="180.33" y="131.15" width="16.39" height="16.39"/><rect class="cls-8" x="180.33" y="114.75" width="16.39" height="16.4"/><rect class="cls-8" x="180.33" y="98.36" width="16.39" height="16.39"/><rect class="cls-5" x="180.33" y="81.97" width="16.39" height="16.39"/><rect class="cls-5" x="180.33" y="65.57" width="16.39" height="16.4"/><rect class="cls-5" x="180.33" y="49.18" width="16.39" height="16.39"/><rect class="cls-8" x="180.33" y="32.79" width="16.39" height="16.39"/><rect class="cls-5" x="163.94" y="475.41" width="16.39" height="16.39"/><rect class="cls-5" x="163.94" y="459.02" width="16.39" height="16.39"/><rect class="cls-5" x="163.94" y="442.62" width="16.39" height="16.4"/><rect class="cls-5" x="163.94" y="426.23" width="16.39" height="16.39"/><rect class="cls-5" x="163.94" y="409.84" width="16.39" height="16.39"/><rect class="cls-5" x="163.94" y="393.44" width="16.39" height="16.4"/><rect class="cls-5" x="163.94" y="377.05" width="16.39" height="16.39"/><rect class="cls-5" x="163.94" y="360.66" width="16.39" height="16.39"/><rect class="cls-5" x="163.94" y="344.26" width="16.39" height="16.4"/><rect class="cls-5" x="163.94" y="327.87" width="16.39" height="16.39"/><rect class="cls-1" x="163.94" y="311.48" width="16.39" height="16.39"/><rect class="cls-1" x="163.94" y="295.08" width="16.39" height="16.4"/><rect class="cls-7" x="163.94" y="278.69" width="16.39" height="16.39"/><rect class="cls-1" x="163.94" y="262.3" width="16.39" height="16.39"/><rect class="cls-6" x="163.94" y="245.9" width="16.39" height="16.4"/><rect class="cls-6" x="163.94" y="229.51" width="16.39" height="16.39"/><rect class="cls-8" x="163.94" y="213.11" width="16.39" height="16.4"/><rect class="cls-5" x="163.94" y="196.72" width="16.39" height="16.39"/><rect class="cls-6" x="163.94" y="180.33" width="16.39" height="16.39"/><rect class="cls-8" x="163.94" y="163.93" width="16.39" height="16.4"/><rect class="cls-6" x="163.94" y="147.54" width="16.39" height="16.39"/><rect class="cls-6" x="163.94" y="131.15" width="16.39" height="16.39"/><rect class="cls-8" x="163.94" y="114.75" width="16.39" height="16.4"/><rect class="cls-8" x="163.94" y="98.36" width="16.39" height="16.39"/><rect class="cls-5" x="163.94" y="81.97" width="16.39" height="16.39"/><rect class="cls-5" x="163.94" y="65.57" width="16.39" height="16.4"/><rect class="cls-5" x="163.94" y="49.18" width="16.39" height="16.39"/><rect class="cls-11" x="163.94" y="32.79" width="16.39" height="16.39"/><rect class="cls-8" x="163.94" y="16.39" width="16.39" height="16.4"/><rect class="cls-7" x="147.54" y="475.41" width="16.4" height="16.39"/><rect class="cls-7" x="147.54" y="459.02" width="16.4" height="16.39"/><rect class="cls-7" x="147.54" y="442.62" width="16.4" height="16.4"/><rect class="cls-7" x="147.54" y="426.23" width="16.4" height="16.39"/><rect class="cls-7" x="147.54" y="409.84" width="16.4" height="16.39"/><rect class="cls-7" x="147.54" y="393.44" width="16.4" height="16.4"/><rect class="cls-7" x="147.54" y="377.05" width="16.4" height="16.39"/><rect class="cls-7" x="147.54" y="360.66" width="16.4" height="16.39"/><rect class="cls-7" x="147.54" y="344.26" width="16.4" height="16.4"/><rect class="cls-7" x="147.54" y="327.87" width="16.4" height="16.39"/><rect class="cls-7" x="147.54" y="311.48" width="16.4" height="16.39"/><rect class="cls-7" x="147.54" y="295.08" width="16.4" height="16.4"/><rect class="cls-5" x="147.54" y="278.69" width="16.4" height="16.39"/><rect class="cls-7" x="147.54" y="262.3" width="16.4" height="16.39"/><rect class="cls-6" x="147.54" y="245.9" width="16.4" height="16.4"/><rect class="cls-6" x="147.54" y="229.51" width="16.4" height="16.39"/><rect class="cls-8" x="147.54" y="213.11" width="16.4" height="16.4"/><rect class="cls-5" x="147.54" y="196.72" width="16.4" height="16.39"/><rect class="cls-1" x="147.54" y="180.33" width="16.4" height="16.39"/><rect class="cls-6" x="147.54" y="163.93" width="16.4" height="16.4"/><rect class="cls-6" x="147.54" y="147.54" width="16.4" height="16.39"/><rect class="cls-8" x="147.54" y="131.15" width="16.4" height="16.39"/><rect class="cls-8" x="147.54" y="114.75" width="16.4" height="16.4"/><rect class="cls-8" x="147.54" y="98.36" width="16.4" height="16.39"/><rect class="cls-5" x="147.54" y="81.97" width="16.4" height="16.39"/><rect class="cls-5" x="147.54" y="65.57" width="16.4" height="16.4"/><rect class="cls-5" x="147.54" y="49.18" width="16.4" height="16.39"/><rect class="cls-1" x="147.54" y="32.79" width="16.4" height="16.39"/><rect class="cls-8" x="147.54" y="16.39" width="16.4" height="16.4"/><rect class="cls-5" x="131.15" y="475.41" width="16.39" height="16.39"/><rect class="cls-5" x="131.15" y="459.02" width="16.39" height="16.39"/><rect class="cls-5" x="131.15" y="442.62" width="16.39" height="16.4"/><rect class="cls-5" x="131.15" y="426.23" width="16.39" height="16.39"/><rect class="cls-5" x="131.15" y="409.84" width="16.39" height="16.39"/><rect class="cls-5" x="131.15" y="393.44" width="16.39" height="16.4"/><rect class="cls-5" x="131.15" y="377.05" width="16.39" height="16.39"/><rect class="cls-5" x="131.15" y="360.66" width="16.39" height="16.39"/><rect class="cls-5" x="131.15" y="344.26" width="16.39" height="16.4"/><rect class="cls-5" x="131.15" y="327.87" width="16.39" height="16.39"/><rect class="cls-5" x="131.15" y="311.48" width="16.39" height="16.39"/><rect class="cls-5" x="131.15" y="295.08" width="16.39" height="16.4"/><rect class="cls-5" x="131.15" y="278.69" width="16.39" height="16.39"/><rect class="cls-5" x="131.15" y="262.3" width="16.39" height="16.39"/><rect class="cls-7" x="131.15" y="245.9" width="16.39" height="16.4"/><rect class="cls-6" x="131.15" y="229.51" width="16.39" height="16.39"/><rect class="cls-8" x="131.15" y="213.11" width="16.39" height="16.4"/><rect class="cls-11" x="131.15" y="196.72" width="16.39" height="16.39"/><rect class="cls-5" x="131.15" y="180.33" width="16.39" height="16.39"/><rect class="cls-5" x="131.15" y="163.93" width="16.39" height="16.4"/><rect class="cls-6" x="131.15" y="147.54" width="16.39" height="16.39"/><rect class="cls-8" x="131.15" y="131.15" width="16.39" height="16.39"/><rect class="cls-8" x="131.15" y="114.75" width="16.39" height="16.4"/><rect class="cls-8" x="131.15" y="98.36" width="16.39" height="16.39"/><rect class="cls-5" x="131.15" y="81.97" width="16.39" height="16.39"/><rect class="cls-5" x="131.15" y="65.57" width="16.39" height="16.4"/><rect class="cls-5" x="131.15" y="49.18" width="16.39" height="16.39"/><rect class="cls-1" x="131.15" y="32.79" width="16.39" height="16.39"/><rect class="cls-8" x="131.15" y="16.39" width="16.39" height="16.4"/><rect class="cls-5" x="114.76" y="475.41" width="16.39" height="16.39"/><rect class="cls-5" x="114.76" y="459.02" width="16.39" height="16.39"/><rect class="cls-5" x="114.76" y="442.62" width="16.39" height="16.4"/><rect class="cls-5" x="114.76" y="426.23" width="16.39" height="16.39"/><rect class="cls-5" x="114.76" y="409.84" width="16.39" height="16.39"/><rect class="cls-5" x="114.76" y="393.44" width="16.39" height="16.4"/><rect class="cls-5" x="114.76" y="377.05" width="16.39" height="16.39"/><rect class="cls-5" x="114.76" y="360.66" width="16.39" height="16.39"/><rect class="cls-5" x="114.76" y="344.26" width="16.39" height="16.4"/><rect class="cls-5" x="114.76" y="327.87" width="16.39" height="16.39"/><rect class="cls-5" x="114.76" y="311.48" width="16.39" height="16.39"/><rect class="cls-5" x="114.76" y="295.08" width="16.39" height="16.4"/><rect class="cls-5" x="114.76" y="278.69" width="16.39" height="16.39"/><rect class="cls-7" x="114.76" y="262.3" width="16.39" height="16.39"/><rect class="cls-5" x="114.76" y="245.9" width="16.39" height="16.4"/><rect class="cls-7" x="114.76" y="229.51" width="16.39" height="16.39"/><rect class="cls-8" x="114.76" y="213.11" width="16.39" height="16.4"/><rect class="cls-11" x="114.76" y="196.72" width="16.39" height="16.39"/><rect class="cls-11" x="114.76" y="180.33" width="16.39" height="16.39"/><rect class="cls-5" x="114.76" y="163.93" width="16.39" height="16.4"/><rect class="cls-5" x="114.76" y="147.54" width="16.39" height="16.39"/><rect class="cls-6" x="114.76" y="131.15" width="16.39" height="16.39"/><rect class="cls-6" x="114.76" y="114.75" width="16.39" height="16.4"/><rect class="cls-8" x="114.76" y="98.36" width="16.39" height="16.39"/><rect class="cls-5" x="114.76" y="81.97" width="16.39" height="16.39"/><rect class="cls-5" x="114.76" y="65.57" width="16.39" height="16.4"/><rect class="cls-1" x="114.76" y="49.18" width="16.39" height="16.39"/><rect class="cls-8" x="114.76" y="32.79" width="16.39" height="16.39"/><rect class="cls-1" x="98.36" y="475.41" width="16.4" height="16.39"/><rect class="cls-1" x="98.36" y="459.02" width="16.4" height="16.39"/><rect class="cls-1" x="98.36" y="442.62" width="16.4" height="16.4"/><rect class="cls-1" x="98.36" y="426.23" width="16.4" height="16.39"/><rect class="cls-1" x="98.36" y="409.84" width="16.4" height="16.39"/><rect class="cls-1" x="98.36" y="393.44" width="16.4" height="16.4"/><rect class="cls-1" x="98.36" y="377.05" width="16.4" height="16.39"/><rect class="cls-1" x="98.36" y="360.66" width="16.4" height="16.39"/><rect class="cls-1" x="98.36" y="344.26" width="16.4" height="16.4"/><rect class="cls-1" x="98.36" y="327.87" width="16.4" height="16.39"/><rect class="cls-1" x="98.36" y="311.48" width="16.4" height="16.39"/><rect class="cls-5" x="98.36" y="295.08" width="16.4" height="16.4"/><rect class="cls-5" x="98.36" y="278.69" width="16.4" height="16.39"/><rect class="cls-7" x="98.36" y="262.3" width="16.4" height="16.39"/><rect class="cls-5" x="98.36" y="245.9" width="16.4" height="16.4"/><rect class="cls-5" x="98.36" y="229.51" width="16.4" height="16.39"/><rect class="cls-7" x="98.36" y="213.11" width="16.4" height="16.4"/><rect class="cls-8" x="98.36" y="196.72" width="16.4" height="16.39"/><rect class="cls-1" x="98.36" y="180.33" width="16.4" height="16.39"/><rect class="cls-1" x="98.36" y="163.93" width="16.4" height="16.4"/><rect class="cls-5" x="98.36" y="147.54" width="16.4" height="16.39"/><rect class="cls-5" x="98.36" y="131.15" width="16.4" height="16.39"/><rect class="cls-5" x="98.36" y="114.75" width="16.4" height="16.4"/><rect class="cls-8" x="98.36" y="98.36" width="16.4" height="16.39"/><rect class="cls-10" x="98.36" y="81.97" width="16.4" height="16.39"/><rect class="cls-5" x="98.36" y="65.57" width="16.4" height="16.4"/><rect class="cls-1" x="98.36" y="49.18" width="16.4" height="16.39"/><rect class="cls-8" x="98.36" y="32.79" width="16.4" height="16.39"/><rect class="cls-6" x="81.97" y="475.41" width="16.39" height="16.39"/><rect class="cls-6" x="81.97" y="459.02" width="16.39" height="16.39"/><rect class="cls-6" x="81.97" y="442.62" width="16.39" height="16.4"/><rect class="cls-4" x="81.97" y="426.23" width="16.39" height="16.39"/><rect class="cls-4" x="81.97" y="409.84" width="16.39" height="16.39"/><rect class="cls-4" x="81.97" y="393.44" width="16.39" height="16.4"/><rect class="cls-6" x="81.97" y="377.05" width="16.39" height="16.39"/><rect class="cls-6" x="81.97" y="360.66" width="16.39" height="16.39"/><rect class="cls-6" x="81.97" y="344.26" width="16.39" height="16.4"/><rect class="cls-7" x="81.97" y="327.87" width="16.39" height="16.39"/><rect class="cls-7" x="81.97" y="311.48" width="16.39" height="16.39"/><rect class="cls-5" x="81.97" y="295.08" width="16.39" height="16.4"/><rect class="cls-5" x="81.97" y="278.69" width="16.39" height="16.39"/><rect class="cls-5" x="81.97" y="262.3" width="16.39" height="16.39"/><rect class="cls-7" x="81.97" y="245.9" width="16.39" height="16.4"/><rect class="cls-7" x="81.97" y="229.51" width="16.39" height="16.39"/><rect class="cls-7" x="81.97" y="213.11" width="16.39" height="16.4"/><rect class="cls-8" x="81.97" y="196.72" width="16.39" height="16.39"/><rect class="cls-10" x="81.97" y="180.33" width="16.39" height="16.39"/><rect class="cls-1" x="81.97" y="163.93" width="16.39" height="16.4"/><rect class="cls-5" x="81.97" y="147.54" width="16.39" height="16.39"/><rect class="cls-1" x="81.97" y="131.15" width="16.39" height="16.39"/><rect class="cls-1" x="81.97" y="114.75" width="16.39" height="16.4"/><rect class="cls-8" x="81.97" y="98.36" width="16.39" height="16.39"/><rect class="cls-10" x="81.97" y="81.97" width="16.39" height="16.39"/><rect class="cls-1" x="81.97" y="65.57" width="16.39" height="16.4"/><rect class="cls-8" x="81.97" y="49.18" width="16.39" height="16.39"/><rect class="cls-12" x="81.97" width="16.39" height="16.39"/><rect class="cls-7" x="65.58" y="475.41" width="16.39" height="16.39"/><rect class="cls-7" x="65.58" y="459.02" width="16.39" height="16.39"/><rect class="cls-4" x="65.58" y="442.62" width="16.39" height="16.4"/><rect class="cls-3" x="65.58" y="426.23" width="16.39" height="16.39"/><rect class="cls-3" x="65.58" y="409.84" width="16.39" height="16.39"/><rect class="cls-3" x="65.58" y="393.44" width="16.39" height="16.4"/><rect class="cls-7" x="65.58" y="377.05" width="16.39" height="16.39"/><rect class="cls-7" x="65.58" y="360.66" width="16.39" height="16.39"/><rect class="cls-7" x="65.58" y="344.26" width="16.39" height="16.4"/><rect class="cls-5" x="65.58" y="327.87" width="16.39" height="16.39"/><rect class="cls-5" x="65.58" y="311.48" width="16.39" height="16.39"/><rect class="cls-5" x="65.58" y="295.08" width="16.39" height="16.4"/><rect class="cls-5" x="65.58" y="278.69" width="16.39" height="16.39"/><rect class="cls-5" x="65.58" y="262.3" width="16.39" height="16.39"/><rect class="cls-1" x="65.58" y="245.9" width="16.39" height="16.4"/><rect class="cls-6" x="65.58" y="229.51" width="16.39" height="16.39"/><rect class="cls-7" x="65.58" y="213.11" width="16.39" height="16.4"/><rect class="cls-8" x="65.58" y="180.33" width="16.39" height="16.39"/><rect class="cls-6" x="65.58" y="163.93" width="16.39" height="16.4"/><rect class="cls-6" x="65.58" y="147.54" width="16.39" height="16.39"/><rect class="cls-8" x="65.58" y="131.15" width="16.39" height="16.39"/><rect class="cls-8" x="65.58" y="114.75" width="16.39" height="16.4"/><rect class="cls-8" x="65.58" y="98.36" width="16.39" height="16.39"/><rect class="cls-8" x="65.58" y="81.97" width="16.39" height="16.39"/><rect class="cls-6" x="65.58" y="65.57" width="16.39" height="16.4"/><rect class="cls-6" x="65.58" y="49.18" width="16.39" height="16.39"/><rect class="cls-6" x="65.58" y="32.79" width="16.39" height="16.39"/><rect class="cls-6" x="65.58" y="16.39" width="16.39" height="16.4"/><rect class="cls-12" x="65.58" width="16.39" height="16.39"/><rect class="cls-7" x="49.18" y="377.05" width="16.4" height="16.39"/><rect class="cls-7" x="49.18" y="229.51" width="16.4" height="16.39"/><rect class="cls-8" x="49.18" y="163.93" width="16.4" height="16.4"/><rect class="cls-8" x="49.18" y="147.54" width="16.4" height="16.39"/><rect class="cls-7" x="32.79" y="377.05" width="16.39" height="16.39"/><rect class="cls-7" x="32.79" y="262.3" width="16.39" height="16.39"/><rect class="cls-7" x="32.79" y="245.9" width="16.39" height="16.4"/><rect class="cls-7" x="16.4" y="377.05" width="16.39" height="16.39"/><rect class="cls-7" x="16.4" y="295.08" width="16.39" height="16.4"/><rect class="cls-7" x="16.4" y="278.69" width="16.39" height="16.39"/><rect class="cls-7" y="377.05" width="16.4" height="16.39"/><rect class="cls-7" y="360.66" width="16.4" height="16.39"/><rect class="cls-7" y="344.26" width="16.4" height="16.4"/><rect class="cls-7" y="327.87" width="16.4" height="16.39"/><rect class="cls-7" y="311.48" width="16.4" height="16.39"/></svg>